<?xml version="1.0" encoding="UTF-8" standalone="no"?>
<!DOCTYPE svg PUBLIC "-//W3C//DTD SVG 1.1//EN"
 "http://www.w3.org/Graphics/SVG/1.1/DTD/svg11.dtd">
<!-- Generated by graphviz version 2.36.0 (20140111.2315)
 -->
<!-- Title: g Pages: 1 -->
<svg width="566pt" height="260pt"
 viewBox="0.00 0.00 566.00 260.00" xmlns="http://www.w3.org/2000/svg" xmlns:xlink="http://www.w3.org/1999/xlink">
<g id="graph0" class="graph" transform="scale(1 1) rotate(0) translate(4 256)">
<title>g</title>
<polygon fill="white" stroke="none" points="-4,4 -4,-256 562,-256 562,4 -4,4"/>
<!-- r11 -->
<g id="node1" class="node"><title>r11</title>
<polygon fill="none" stroke="black" points="314.25,-252 243.75,-252 243.75,-216 314.25,-216 314.25,-252"/>
<text text-anchor="middle" x="279" y="-230.3" font-family="Times,serif" font-size="14.00">840 [0..7]</text>
</g>
<!-- r21 -->
<g id="node2" class="node"><title>r21</title>
<polygon fill="none" stroke="black" points="259.25,-180 188.75,-180 188.75,-144 259.25,-144 259.25,-180"/>
<text text-anchor="middle" x="224" y="-158.3" font-family="Times,serif" font-size="14.00">120 [0..3]</text>
</g>
<!-- r11&#45;&#45;r21 -->
<g id="edge1" class="edge"><title>r11&#45;&#45;r21</title>
<path fill="none" stroke="black" d="M265.404,-215.697C256.879,-204.846 245.935,-190.917 237.439,-180.104"/>
</g>
<!-- r22 -->
<g id="node3" class="node"><title>r22</title>
<polygon fill="none" stroke="black" points="366,-180 302,-180 302,-144 366,-144 366,-180"/>
<text text-anchor="middle" x="334" y="-158.3" font-family="Times,serif" font-size="14.00">84 [4..7]</text>
</g>
<!-- r11&#45;&#45;r22 -->
<g id="edge2" class="edge"><title>r11&#45;&#45;r22</title>
<path fill="none" stroke="black" d="M292.596,-215.697C301.121,-204.846 312.065,-190.917 320.561,-180.104"/>
</g>
<!-- r31 -->
<g id="node4" class="node"><title>r31</title>
<polygon fill="none" stroke="black" points="131,-108 67,-108 67,-72 131,-72 131,-108"/>
<text text-anchor="middle" x="99" y="-86.3" font-family="Times,serif" font-size="14.00">10 [0..1]</text>
</g>
<!-- r21&#45;&#45;r31 -->
<g id="edge3" class="edge"><title>r21&#45;&#45;r31</title>
<path fill="none" stroke="black" d="M193.422,-143.876C174.051,-133.029 149.089,-119.05 129.696,-108.19"/>
</g>
<!-- r32 -->
<g id="node5" class="node"><title>r32</title>
<polygon fill="none" stroke="black" points="256,-108 192,-108 192,-72 256,-72 256,-108"/>
<text text-anchor="middle" x="224" y="-86.3" font-family="Times,serif" font-size="14.00">24 [2..3]</text>
</g>
<!-- r21&#45;&#45;r32 -->
<g id="edge4" class="edge"><title>r21&#45;&#45;r32</title>
<path fill="none" stroke="black" d="M224,-143.697C224,-132.846 224,-118.917 224,-108.104"/>
</g>
<!-- r33 -->
<g id="node6" class="node"><title>r33</title>
<polygon fill="none" stroke="black" points="366,-108 302,-108 302,-72 366,-72 366,-108"/>
<text text-anchor="middle" x="334" y="-86.3" font-family="Times,serif" font-size="14.00">42 [4..5]</text>
</g>
<!-- r22&#45;&#45;r33 -->
<g id="edge5" class="edge"><title>r22&#45;&#45;r33</title>
<path fill="none" stroke="black" d="M334,-143.697C334,-132.846 334,-118.917 334,-108.104"/>
</g>
<!-- r34 -->
<g id="node7" class="node"><title>r34</title>
<polygon fill="none" stroke="black" points="487.25,-108 430.75,-108 430.75,-72 487.25,-72 487.25,-108"/>
<text text-anchor="middle" x="459" y="-86.3" font-family="Times,serif" font-size="14.00">4 [6..7]</text>
</g>
<!-- r22&#45;&#45;r34 -->
<g id="edge6" class="edge"><title>r22&#45;&#45;r34</title>
<path fill="none" stroke="black" d="M364.578,-143.876C384.672,-132.624 410.782,-118.002 430.451,-106.987"/>
</g>
<!-- r41 -->
<g id="node8" class="node"><title>r41</title>
<ellipse fill="none" stroke="black" cx="27" cy="-18" rx="27" ry="18"/>
<text text-anchor="middle" x="27" y="-14.3" font-family="Times,serif" font-size="14.00">2</text>
</g>
<!-- r31&#45;&#45;r41 -->
<g id="edge7" class="edge"><title>r31&#45;&#45;r41</title>
<path fill="none" stroke="black" d="M81.2022,-71.6966C69.0425,-59.8746 53.1228,-44.3972 41.6869,-33.279"/>
</g>
<!-- r42 -->
<g id="node9" class="node"><title>r42</title>
<ellipse fill="none" stroke="black" cx="99" cy="-18" rx="27" ry="18"/>
<text text-anchor="middle" x="99" y="-14.3" font-family="Times,serif" font-size="14.00">5</text>
</g>
<!-- r31&#45;&#45;r42 -->
<g id="edge8" class="edge"><title>r31&#45;&#45;r42</title>
<path fill="none" stroke="black" d="M99,-71.6966C99,-60.8463 99,-46.9167 99,-36.1043"/>
</g>
<!-- r43 -->
<g id="node10" class="node"><title>r43</title>
<ellipse fill="none" stroke="black" cx="171" cy="-18" rx="27" ry="18"/>
<text text-anchor="middle" x="171" y="-14.3" font-family="Times,serif" font-size="14.00">8</text>
</g>
<!-- r32&#45;&#45;r43 -->
<g id="edge9" class="edge"><title>r32&#45;&#45;r43</title>
<path fill="none" stroke="black" d="M210.899,-71.6966C202.316,-60.3605 191.188,-45.6631 182.865,-34.6712"/>
</g>
<!-- r44 -->
<g id="node11" class="node"><title>r44</title>
<ellipse fill="none" stroke="black" cx="243" cy="-18" rx="27" ry="18"/>
<text text-anchor="middle" x="243" y="-14.3" font-family="Times,serif" font-size="14.00">3</text>
</g>
<!-- r32&#45;&#45;r44 -->
<g id="edge10" class="edge"><title>r32&#45;&#45;r44</title>
<path fill="none" stroke="black" d="M228.697,-71.6966C231.642,-60.8463 235.423,-46.9167 238.357,-36.1043"/>
</g>
<!-- r45 -->
<g id="node12" class="node"><title>r45</title>
<ellipse fill="none" stroke="black" cx="315" cy="-18" rx="27" ry="18"/>
<text text-anchor="middle" x="315" y="-14.3" font-family="Times,serif" font-size="14.00">6</text>
</g>
<!-- r33&#45;&#45;r45 -->
<g id="edge11" class="edge"><title>r33&#45;&#45;r45</title>
<path fill="none" stroke="black" d="M329.303,-71.6966C326.358,-60.8463 322.577,-46.9167 319.643,-36.1043"/>
</g>
<!-- r46 -->
<g id="node13" class="node"><title>r46</title>
<ellipse fill="none" stroke="black" cx="387" cy="-18" rx="27" ry="18"/>
<text text-anchor="middle" x="387" y="-14.3" font-family="Times,serif" font-size="14.00">7</text>
</g>
<!-- r33&#45;&#45;r46 -->
<g id="edge12" class="edge"><title>r33&#45;&#45;r46</title>
<path fill="none" stroke="black" d="M347.101,-71.6966C355.684,-60.3605 366.812,-45.6631 375.135,-34.6712"/>
</g>
<!-- r47 -->
<g id="node14" class="node"><title>r47</title>
<ellipse fill="none" stroke="black" cx="459" cy="-18" rx="27" ry="18"/>
<text text-anchor="middle" x="459" y="-14.3" font-family="Times,serif" font-size="14.00">1</text>
</g>
<!-- r34&#45;&#45;r47 -->
<g id="edge13" class="edge"><title>r34&#45;&#45;r47</title>
<path fill="none" stroke="black" d="M459,-71.6966C459,-60.8463 459,-46.9167 459,-36.1043"/>
</g>
<!-- r48 -->
<g id="node15" class="node"><title>r48</title>
<ellipse fill="none" stroke="black" cx="531" cy="-18" rx="27" ry="18"/>
<text text-anchor="middle" x="531" y="-14.3" font-family="Times,serif" font-size="14.00">4</text>
</g>
<!-- r34&#45;&#45;r48 -->
<g id="edge14" class="edge"><title>r34&#45;&#45;r48</title>
<path fill="none" stroke="black" d="M476.798,-71.6966C488.958,-59.8746 504.877,-44.3972 516.313,-33.279"/>
</g>
</g>
</svg>
